<svg width="690" height="406" viewBox="0 0 690 406" fill="none" xmlns="http://www.w3.org/2000/svg">
<path d="M340.695 15.5838C340.695 18.019 343.042 19.8561 346.154 19.8561C349.267 19.8561 351.613 18.019 351.613 15.5838C351.613 13.1486 349.267 11.3115 346.154 11.3115C343.042 11.3115 340.695 13.1486 340.695 15.5838ZM349.43 15.5838C349.43 15.9384 348.268 17.0079 346.154 17.0079C344.041 17.0079 342.879 15.9384 342.879 15.5838C342.879 15.2292 344.041 14.1597 346.154 14.1597C348.268 14.1597 349.43 15.2292 349.43 15.5838Z" fill="black" fill-opacity="0.05"/>
<path fill-rule="evenodd" clip-rule="evenodd" d="M367.99 14.1597C367.984 14.0591 367.968 13.9597 367.945 13.8635C368.099 13.1709 367.832 12.4368 367.323 12.1546L361.261 8.82082C360.681 6.93674 358.613 5.61519 355.981 5.61519C355.2 5.61519 356.273 6.08799 351.527 3.47905C351.177 1.68897 349.507 0.331813 347.246 0H345.063C342.801 0.331813 341.132 1.68897 340.782 3.47905C336.045 6.08229 337.111 5.61519 336.328 5.61519C333.696 5.61519 331.633 6.93675 331.048 8.81512L326.502 11.3116C326.502 11.3116 324.332 12.6675 323.666 12.9554C323 13.2434 323 13.7781 323 13.7781V34.0764V36.9976C323.391 37.2128 324.129 37.6675 324.848 38.1094L326.502 39.1047C347.147 50.4718 345.773 49.762 346.154 49.762C346.523 49.762 345.15 50.4342 367.322 38.2582C367.526 38.1626 367.695 37.969 367.793 37.717C368.066 37.1802 367.99 38.8933 367.99 14.1597ZM365.807 15.6066L347.246 25.8003V46.1932L365.807 35.9996V15.6066ZM355.981 11.3116C358.094 11.3116 359.256 10.2421 359.256 9.88746C359.256 9.53286 358.094 8.46337 355.981 8.46337C353.867 8.46337 352.705 9.53286 352.705 9.88746C352.705 10.2421 353.867 11.3116 355.981 11.3116ZM360.929 11.7245C359.639 13.4555 357.826 14.3479 355.981 14.1597C350.715 14.1597 348.943 9.33918 352.059 6.86269L350.95 6.25318C348.949 9.20532 343.361 9.20675 341.359 6.25318L340.25 6.86269C343.335 9.31782 341.657 14.1597 336.328 14.1597C334.483 14.3479 332.67 13.4555 331.38 11.7245L328.222 13.4605L346.154 23.3095L364.087 13.4605L360.929 11.7245ZM339.604 9.88746C339.604 9.53286 338.442 8.46337 336.328 8.46337C334.214 8.46337 333.053 9.53286 333.053 9.88746C333.053 10.2421 334.214 11.3116 336.328 11.3116C338.442 11.3116 339.604 10.2421 339.604 9.88746ZM346.154 5.61519C348.268 5.61519 349.43 4.5457 349.43 4.1911C349.43 3.8365 348.268 2.76701 346.154 2.76701C344.041 2.76701 342.879 3.8365 342.879 4.1911C342.879 4.5457 344.041 5.61519 346.154 5.61519ZM345.063 46.1932V25.8003L325.183 14.8826L325.184 35.2756L345.063 46.1932Z" fill="black" fill-opacity="0.05"/>
<path d="M661.695 370.584C661.695 373.019 664.042 374.856 667.154 374.856C670.267 374.856 672.613 373.019 672.613 370.584C672.613 368.149 670.267 366.312 667.154 366.312C664.042 366.312 661.695 368.149 661.695 370.584ZM670.43 370.584C670.43 370.938 669.268 372.008 667.154 372.008C665.041 372.008 663.879 370.938 663.879 370.584C663.879 370.229 665.041 369.16 667.154 369.16C669.268 369.16 670.43 370.229 670.43 370.584Z" fill="black" fill-opacity="0.05"/>
<path fill-rule="evenodd" clip-rule="evenodd" d="M688.99 369.16C688.984 369.059 688.968 368.96 688.945 368.864C689.099 368.171 688.832 367.437 688.323 367.155L682.261 363.821C681.681 361.937 679.613 360.615 676.981 360.615C676.2 360.615 677.273 361.088 672.527 358.479C672.177 356.689 670.507 355.332 668.246 355H666.063C663.801 355.332 662.132 356.689 661.782 358.479C657.045 361.082 658.111 360.615 657.328 360.615C654.696 360.615 652.633 361.937 652.048 363.815L647.502 366.312C647.502 366.312 645.332 367.668 644.666 367.955C644 368.243 644 368.778 644 368.778V389.076V391.998C644.391 392.213 645.129 392.668 645.848 393.109L647.502 394.105C668.147 405.472 666.773 404.762 667.154 404.762C667.523 404.762 666.15 405.434 688.322 393.258C688.526 393.163 688.695 392.969 688.793 392.717C689.066 392.18 688.99 393.893 688.99 369.16ZM686.807 370.607L668.246 380.8V401.193L686.807 391V370.607ZM676.981 366.312C679.094 366.312 680.256 365.242 680.256 364.887C680.256 364.533 679.094 363.463 676.981 363.463C674.867 363.463 673.705 364.533 673.705 364.887C673.705 365.242 674.867 366.312 676.981 366.312ZM681.929 366.725C680.639 368.455 678.826 369.348 676.981 369.16C671.715 369.16 669.943 364.339 673.059 361.863L671.95 361.253C669.949 364.205 664.361 364.207 662.359 361.253L661.25 361.863C664.335 364.318 662.657 369.16 657.328 369.16C655.483 369.348 653.67 368.455 652.38 366.725L649.222 368.461L667.154 378.31L685.087 368.461L681.929 366.725ZM660.604 364.887C660.604 364.533 659.442 363.463 657.328 363.463C655.214 363.463 654.053 364.533 654.053 364.887C654.053 365.242 655.214 366.312 657.328 366.312C659.442 366.312 660.604 365.242 660.604 364.887ZM667.154 360.615C669.268 360.615 670.43 359.546 670.43 359.191C670.43 358.837 669.268 357.767 667.154 357.767C665.041 357.767 663.879 358.837 663.879 359.191C663.879 359.546 665.041 360.615 667.154 360.615ZM666.063 401.193V380.8L646.183 369.883L646.184 390.276L666.063 401.193Z" fill="black" fill-opacity="0.05"/>
<path d="M25.6954 15.5838C25.6954 18.019 28.0417 19.8561 31.1544 19.8561C34.2671 19.8561 36.6134 18.019 36.6134 15.5838C36.6134 13.1486 34.2671 11.3115 31.1544 11.3115C28.0417 11.3115 25.6954 13.1486 25.6954 15.5838ZM34.4298 15.5838C34.4298 15.9384 33.2681 17.0079 31.1544 17.0079C29.0407 17.0079 27.879 15.9384 27.879 15.5838C27.879 15.2292 29.0407 14.1597 31.1544 14.1597C33.2681 14.1597 34.4298 15.2292 34.4298 15.5838Z" fill="black" fill-opacity="0.05"/>
<path fill-rule="evenodd" clip-rule="evenodd" d="M52.9905 14.1597C52.9836 14.0591 52.9683 13.9597 52.9446 13.8635C53.0993 13.1709 52.8324 12.4368 52.3234 12.1546L46.2606 8.82082C45.6809 6.93674 43.613 5.61519 40.9806 5.61519C40.2 5.61519 41.2733 6.08799 36.5272 3.47905C36.1767 1.68897 34.5073 0.331813 32.2462 0H30.0626C27.8015 0.331813 26.1321 1.68897 25.7817 3.47905C21.0454 6.08229 22.111 5.61519 21.3282 5.61519C18.6959 5.61519 16.6334 6.93675 16.0482 8.81512L11.502 11.3116C11.502 11.3116 9.332 12.6675 8.666 12.9554C8 13.2434 8 13.7781 8 13.7781V34.0764V36.9976C8.39099 37.2128 9.12941 37.6675 9.8477 38.1094L11.502 39.1047C32.1473 50.4718 30.7726 49.762 31.1544 49.762C31.5235 49.762 30.15 50.4342 52.3223 38.2582C52.5263 38.1626 52.6946 37.969 52.7929 37.717C53.0658 37.1802 52.9905 38.8933 52.9905 14.1597ZM50.8069 15.6066L32.2462 25.8003V46.1932L50.8069 35.9996V15.6066ZM40.9806 11.3116C43.0944 11.3116 44.2561 10.2421 44.2561 9.88746C44.2561 9.53286 43.0944 8.46337 40.9806 8.46337C38.8669 8.46337 37.7052 9.53286 37.7052 9.88746C37.7052 10.2421 38.8669 11.3116 40.9806 11.3116ZM45.9287 11.7245C44.639 13.4555 42.8255 14.3479 40.9806 14.1597C35.7149 14.1597 33.9429 9.33918 37.0589 6.86269L35.9496 6.25318C33.9494 9.20532 28.3605 9.20675 26.3592 6.25318L25.25 6.86269C28.3354 9.31782 26.6573 14.1597 21.3282 14.1597C19.4833 14.3479 17.6699 13.4555 16.3801 11.7245L13.2216 13.4605L31.1544 23.3095L49.0873 13.4605L45.9287 11.7245ZM24.6036 9.88746C24.6036 9.53286 23.4419 8.46337 21.3282 8.46337C19.2145 8.46337 18.0528 9.53286 18.0528 9.88746C18.0528 10.2421 19.2145 11.3116 21.3282 11.3116C23.4419 11.3116 24.6036 10.2421 24.6036 9.88746ZM31.1544 5.61519C33.2682 5.61519 34.4298 4.5457 34.4298 4.1911C34.4298 3.8365 33.2682 2.76701 31.1544 2.76701C29.0407 2.76701 27.879 3.8365 27.879 4.1911C27.879 4.5457 29.0407 5.61519 31.1544 5.61519ZM30.0626 46.1932V25.8003L10.183 14.8826L10.1836 35.2756L30.0626 46.1932Z" fill="black" fill-opacity="0.05"/>
<path d="M15.7674 338.073C15.7674 340.416 18.025 342.184 21.0201 342.184C24.0151 342.184 26.2727 340.416 26.2727 338.073C26.2727 335.73 24.0151 333.962 21.0201 333.962C18.025 333.962 15.7674 335.73 15.7674 338.073ZM21.0201 336.703C23.0539 336.703 24.1717 337.732 24.1717 338.073C24.1717 338.414 23.0539 339.443 21.0201 339.443C18.9862 339.443 17.8685 338.414 17.8685 338.073C17.8685 337.732 18.9862 336.703 21.0201 336.703Z" fill="black" fill-opacity="0.05"/>
<path d="M35.7275 372.329C35.7275 374.673 37.9851 376.44 40.9802 376.44C43.9753 376.44 46.2329 374.673 46.2329 372.329C46.2329 369.986 43.9753 368.219 40.9802 368.219C37.9851 368.219 35.7275 369.986 35.7275 372.329ZM44.1318 372.329C44.1318 372.671 43.014 373.7 40.9802 373.7C38.9464 373.7 37.8286 372.671 37.8286 372.329C37.8286 371.988 38.9464 370.959 40.9802 370.959C43.014 370.959 44.1318 371.988 44.1318 372.329Z" fill="black" fill-opacity="0.05"/>
<path d="M61.9908 370.959C61.9842 370.862 61.9695 370.767 61.9467 370.674C62.0955 370.008 61.8388 369.301 61.349 369.03L55.5154 365.822C54.9575 364.009 52.9678 362.738 50.435 362.738C49.6838 362.738 50.7165 363.193 46.1499 360.682C45.8126 358.96 44.2064 357.654 42.0307 357.335C42.0307 334.863 42.0717 335.881 41.9488 335.5C41.8397 335.178 41.6433 334.919 41.3973 334.775C41.1955 334.661 41.4036 334.775 35.5552 331.56C34.9974 329.753 33.0077 328.481 30.4749 328.481C29.7237 328.481 30.7564 328.936 26.1898 326.426C25.2863 321.861 16.7549 321.855 15.8504 326.426C11.2932 328.931 12.3185 328.481 11.5653 328.481C9.03247 328.481 7.04801 329.753 6.48493 331.56C3.55394 333.173 0.496895 334.849 0.643969 334.775C0.418045 334.902 0.235648 335.132 0.13131 335.423C-0.0504325 335.893 0.00944776 332.708 0.00944776 381.921C0.00930374 382.473 0.26267 382.971 0.652373 383.185C42.7819 406.322 40.5127 405.216 40.9802 405.216C41.3353 405.216 40.0137 405.862 61.3479 394.147C61.5442 394.055 61.7061 393.869 61.8007 393.626C62.0633 393.109 61.9908 394.758 61.9908 370.959ZM42.0307 382.16L59.8898 372.351V391.974L42.0307 401.782V382.16ZM53.5866 366.848C53.5866 367.19 52.4688 368.219 50.435 368.219C48.4011 368.219 47.2834 367.19 47.2834 366.848C47.2834 366.507 48.4011 365.478 50.435 365.478C52.4688 365.478 53.5866 366.507 53.5866 366.848ZM50.435 370.959C52.2101 371.14 53.955 370.282 55.196 368.616L58.2352 370.286L40.9802 379.763L23.7252 370.286L26.7644 368.616C28.0054 370.282 29.7502 371.14 31.5254 370.959C36.653 370.959 38.2677 366.3 35.2989 363.938L36.3663 363.352C38.2919 366.193 43.6696 366.192 45.5941 363.352L46.6615 363.938C43.6632 366.321 45.3683 370.959 50.435 370.959ZM35.8105 360.682C31.2533 363.187 32.2786 362.738 31.5254 362.738C28.9926 362.738 27.0081 364.009 26.445 365.817L22.0706 368.219V347.903L39.9297 338.095V357.335C37.754 357.654 36.1477 358.96 35.8105 360.682ZM31.5254 365.478C33.5592 365.478 34.677 366.507 34.677 366.848C34.677 367.19 33.5592 368.219 31.5254 368.219C29.4916 368.219 28.3738 367.19 28.3738 366.848C28.3738 366.507 29.4916 365.478 31.5254 365.478ZM2.11051 338.095L19.9696 347.903V368.219L2.11051 358.416V338.095ZM44.1318 361.367C44.1318 361.709 43.014 362.738 40.9802 362.738C38.9464 362.738 37.8286 361.709 37.8286 361.367C37.8286 361.026 38.9464 359.997 40.9802 359.997C43.014 359.997 44.1318 361.026 44.1318 361.367ZM33.6265 332.592C33.6265 332.933 32.5087 333.962 30.4749 333.962C28.441 333.962 27.3233 332.933 27.3233 332.592C27.3233 332.251 28.441 331.222 30.4749 331.222C32.5087 331.222 33.6265 332.251 33.6265 332.592ZM21.0201 325.741C23.0539 325.741 24.1717 326.77 24.1717 327.111C24.1717 327.452 23.0539 328.481 21.0201 328.481C18.9863 328.481 17.8685 327.452 17.8685 327.111C17.8685 326.77 18.9863 325.741 21.0201 325.741ZM16.4061 329.095C18.3318 331.937 23.7094 331.936 25.634 329.095L26.7014 329.682C25.846 330.239 25.2825 331.347 25.2222 332.592C25.2222 337.188 33.0382 338.147 35.2359 334.36L38.274 336.03L21.0201 345.507L3.76615 336.03L6.80429 334.36C8.9999 338.143 16.818 337.192 16.818 332.592C16.7577 331.347 16.1942 330.239 15.3388 329.682L16.4061 329.095ZM11.5653 331.222C13.5991 331.222 14.7169 332.251 14.7169 332.592C14.7169 332.933 13.5991 333.962 11.5653 333.962C9.53147 333.962 8.4137 332.933 8.4137 332.592C8.4137 332.251 9.53147 331.222 11.5653 331.222ZM2.11051 361.389L20.6104 371.55L39.9297 382.16V401.782L2.11051 381.011V361.389Z" fill="black" fill-opacity="0.05"/>
<path d="M37.1983 394.367L14.0866 381.309C13.7403 381.1 13.3346 381.153 13.0266 381.446C12.7186 381.74 12.5567 382.228 12.6036 382.721C12.6505 383.215 12.8989 383.637 13.2525 383.823L36.3642 396.88C36.7113 397.098 37.1218 397.05 37.4338 396.756C37.7459 396.461 37.9097 395.968 37.8605 395.47C37.8114 394.972 37.5573 394.549 37.1983 394.367Z" fill="black" fill-opacity="0.05"/>
<path d="M8.8339 378.334L5.68231 376.553C5.14998 376.25 4.53031 376.567 4.29823 377.262C4.06615 377.956 4.30956 378.764 4.84188 379.067L7.99348 380.848C8.33783 381.044 8.73612 380.986 9.03831 380.694C9.34051 380.403 9.50069 379.924 9.45853 379.437C9.41636 378.95 9.17826 378.53 8.8339 378.334Z" fill="black" fill-opacity="0.05"/>
<path d="M643.767 15.0729C643.767 17.4161 646.025 19.1837 649.02 19.1837C652.015 19.1837 654.273 17.4161 654.273 15.0729C654.273 12.7298 652.015 10.9622 649.02 10.9622C646.025 10.9622 643.767 12.7298 643.767 15.0729ZM649.02 13.7027C651.054 13.7027 652.172 14.7317 652.172 15.0729C652.172 15.4141 651.054 16.4432 649.02 16.4432C646.986 16.4432 645.868 15.4141 645.868 15.0729C645.868 14.7317 646.986 13.7027 649.02 13.7027Z" fill="black" fill-opacity="0.05"/>
<path d="M663.728 49.3295C663.728 51.6727 665.985 53.4403 668.98 53.4403C671.975 53.4403 674.233 51.6727 674.233 49.3295C674.233 46.9864 671.975 45.2188 668.98 45.2188C665.985 45.2188 663.728 46.9864 663.728 49.3295ZM672.132 49.3295C672.132 49.6707 671.014 50.6998 668.98 50.6998C666.946 50.6998 665.829 49.6707 665.829 49.3295C665.829 48.9883 666.946 47.9593 668.98 47.9593C671.014 47.9593 672.132 48.9883 672.132 49.3295Z" fill="black" fill-opacity="0.05"/>
<path d="M689.991 47.9592C689.984 47.8624 689.969 47.7668 689.947 47.6742C690.096 47.0078 689.839 46.3014 689.349 46.0299L683.515 42.8221C682.958 41.0093 680.968 39.7377 678.435 39.7377C677.684 39.7377 678.717 40.1926 674.15 37.6823C673.813 35.9599 672.206 34.654 670.031 34.3348C670.031 11.8625 670.072 12.8806 669.949 12.4997C669.84 12.1776 669.643 11.9195 669.397 11.7748C669.196 11.6611 669.404 11.7748 663.555 8.56018C662.997 6.75281 661.008 5.48121 658.475 5.48121C657.724 5.48121 658.756 5.93613 654.19 3.42582C653.286 -1.13851 644.755 -1.14536 643.85 3.42582C639.293 5.93065 640.319 5.48121 639.565 5.48121C637.032 5.48121 635.048 6.75281 634.485 8.56018C631.554 10.173 628.497 11.8488 628.644 11.7748C628.418 11.9018 628.236 12.1324 628.131 12.4229C627.95 12.8929 628.009 9.70846 628.009 58.9213C628.009 59.4728 628.263 59.9707 628.652 60.1847C670.782 83.3215 668.513 82.2157 668.98 82.2157C669.335 82.2157 668.014 82.8625 689.348 71.1468C689.544 71.0548 689.706 70.8686 689.801 70.6261C690.063 70.1095 689.991 71.7579 689.991 47.9592ZM670.031 59.1597L687.89 49.3514V68.9735L670.031 78.7819V59.1597ZM681.587 43.8485C681.587 44.1897 680.469 45.2187 678.435 45.2187C676.401 45.2187 675.283 44.1897 675.283 43.8485C675.283 43.5073 676.401 42.4782 678.435 42.4782C680.469 42.4782 681.587 43.5073 681.587 43.8485ZM678.435 47.9592C680.21 48.1403 681.955 47.2816 683.196 45.6161L686.235 47.2864L668.98 56.7632L651.725 47.2864L654.764 45.6161C656.005 47.2816 657.75 48.1403 659.525 47.9592C664.653 47.9592 666.268 43.3004 663.299 40.938L664.366 40.3516C666.292 43.1935 671.67 43.1921 673.594 40.3516L674.661 40.938C671.663 43.3209 673.368 47.9592 678.435 47.9592ZM663.811 37.6823C659.253 40.1871 660.279 39.7377 659.525 39.7377C656.993 39.7377 655.008 41.0093 654.445 42.8167L650.071 45.2187V24.9033L667.93 15.0949V34.3348C665.754 34.654 664.148 35.9599 663.811 37.6823ZM659.525 42.4782C661.559 42.4782 662.677 43.5073 662.677 43.8485C662.677 44.1897 661.559 45.2187 659.525 45.2187C657.492 45.2187 656.374 44.1897 656.374 43.8485C656.374 43.5073 657.492 42.4782 659.525 42.4782ZM630.111 15.0949L647.97 24.9033V45.2187L630.111 35.4159V15.0949ZM672.132 38.3674C672.132 38.7086 671.014 39.7377 668.98 39.7377C666.946 39.7377 665.829 38.7086 665.829 38.3674C665.829 38.0262 666.946 36.9972 668.98 36.9972C671.014 36.9972 672.132 38.0262 672.132 38.3674ZM661.626 9.59199C661.626 9.93318 660.509 10.9622 658.475 10.9622C656.441 10.9622 655.323 9.93318 655.323 9.59199C655.323 9.25079 656.441 8.22173 658.475 8.22173C660.509 8.22173 661.626 9.25079 661.626 9.59199ZM649.02 2.74069C651.054 2.74069 652.172 3.76975 652.172 4.11095C652.172 4.45214 651.054 5.48121 649.02 5.48121C646.986 5.48121 645.868 4.45214 645.868 4.11095C645.868 3.76975 646.986 2.74069 649.02 2.74069ZM644.406 6.09508C646.332 8.937 651.709 8.93563 653.634 6.09508L654.701 6.68156C653.846 7.23865 653.282 8.34738 653.222 9.59199C653.222 14.1878 661.038 15.147 663.236 11.3596L666.274 13.03L649.02 22.5067L631.766 13.03L634.804 11.3596C637 15.1429 644.818 14.1919 644.818 9.59199C644.758 8.34738 644.194 7.23865 643.339 6.68156L644.406 6.09508ZM639.565 8.22173C641.599 8.22173 642.717 9.25079 642.717 9.59199C642.717 9.93318 641.599 10.9622 639.565 10.9622C637.531 10.9622 636.414 9.93318 636.414 9.59199C636.414 9.25079 637.531 8.22173 639.565 8.22173ZM630.111 38.3894L648.61 48.5498L667.93 59.1597V78.7819L630.111 58.0115V38.3894Z" fill="black" fill-opacity="0.05"/>
<path d="M665.198 71.3674L642.087 58.3088C641.74 58.1003 641.335 58.1529 641.027 58.4463C640.719 58.7397 640.557 59.2277 640.604 59.7214C640.651 60.2151 640.899 60.6368 641.252 60.8233L664.364 73.8804C664.711 74.0977 665.122 74.0498 665.434 73.7557C665.746 73.4615 665.91 72.9683 665.861 72.4702C665.811 71.9721 665.557 71.5489 665.198 71.3674Z" fill="black" fill-opacity="0.05"/>
<path d="M636.834 55.334L633.682 53.5526C633.15 53.2499 632.53 53.5674 632.298 54.2617C632.066 54.9561 632.31 55.7643 632.842 56.067L635.993 57.8484C636.338 58.0442 636.736 57.9855 637.038 57.6944C637.34 57.4034 637.501 56.9241 637.459 56.4372C637.416 55.9503 637.178 55.5298 636.834 55.334Z" fill="black" fill-opacity="0.05"/>
</svg>
