<svg width="32" height="32" viewBox="0 0 32 32" fill="none" xmlns="http://www.w3.org/2000/svg">
<g clip-path="url(#clip0)">
<path d="M22.6189 19.2746L20.6652 17.3208C19.9674 16.6231 18.7812 16.9022 18.5021 17.8093C18.2928 18.4373 17.595 18.7862 16.967 18.6466C15.5715 18.2977 13.6875 16.4835 13.3386 15.0182C13.1293 14.3902 13.548 13.6924 14.176 13.4831C15.083 13.204 15.3622 12.0178 14.6644 11.3201L12.7106 9.36633C12.1524 8.87789 11.3151 8.87789 10.8267 9.36633L9.50093 10.6921C8.17517 12.0876 9.64048 15.7858 12.92 19.0653C16.1995 22.3448 19.8976 23.8799 21.2932 22.4843L22.6189 21.1586C23.1074 20.6003 23.1074 19.763 22.6189 19.2746Z" fill="#006FF4"/>
</g>
<defs>
<clipPath id="clip0">
<rect width="14" height="14" fill="white" transform="translate(9 9)"/>
</clipPath>
</defs>
</svg>
