<svg width="78" height="78" viewBox="0 0 78 78" fill="none" xmlns="http://www.w3.org/2000/svg">
<g filter="url(#filter0_d)">
<circle cx="39" cy="35" r="28.95" stroke="#E1BE0B" stroke-opacity="0.2" stroke-width="0.1"/>
</g>
<g filter="url(#filter1_d)">
<circle cx="39" cy="35" r="19" fill="url(#paint0_linear)"/>
</g>
<path d="M32.7938 41.5586L31.0393 42.0288L29.2134 35.2145L26.9665 35.8165L26.5752 34.3563L32.8235 32.6821L33.2148 34.1423L30.9679 34.7443L32.7938 41.5586ZM42.4752 34.5181C42.8422 35.8877 42.7847 37.0314 42.3027 37.9492C41.8207 38.8669 40.9458 39.4956 39.678 39.8353C38.4102 40.175 37.3382 40.068 36.4619 39.5142C35.5856 38.9604 34.9629 37.9949 34.5939 36.6177C34.2249 35.2405 34.2829 34.0987 34.7679 33.1923C35.2557 32.2811 36.1354 31.6551 37.407 31.3144C38.6785 30.9737 39.7482 31.0794 40.6159 31.6314C41.4875 32.1824 42.1072 33.1446 42.4752 34.5181ZM36.4363 36.1362C36.684 37.0606 37.046 37.7098 37.5223 38.0836C37.9985 38.4574 38.5857 38.5508 39.2837 38.3638C40.6836 37.9887 41.1343 36.8711 40.6358 35.0109C40.1364 33.147 39.1905 32.4016 37.7982 32.7746C37.1002 32.9617 36.637 33.3385 36.4087 33.9052C36.1794 34.4681 36.1886 35.2118 36.4363 36.1362ZM45.8825 33.3564L46.4598 33.2017C46.9993 33.0571 47.3747 32.8433 47.586 32.5602C47.7963 32.2734 47.8468 31.9262 47.7376 31.5187C47.6274 31.1074 47.4329 30.834 47.1539 30.6985C46.8787 30.5619 46.5015 30.5579 46.0223 30.6863L45.2243 30.9001L45.8825 33.3564ZM49.4925 30.9818C49.7311 31.8722 49.6343 32.6281 49.2023 33.2494C48.774 33.8696 48.0467 34.3173 47.0204 34.5923L46.2677 34.794L47.0563 37.737L45.3018 38.2071L43.0846 29.9326L45.7277 29.2244C46.7313 28.9555 47.5517 28.9682 48.1886 29.2626C48.8283 29.5522 49.263 30.1253 49.4925 30.9818Z" fill="white"/>
<defs>
<filter id="filter0_d" x="0" y="0" width="78" height="78" filterUnits="userSpaceOnUse" color-interpolation-filters="sRGB">
<feFlood flood-opacity="0" result="BackgroundImageFix"/>
<feColorMatrix in="SourceAlpha" type="matrix" values="0 0 0 0 0 0 0 0 0 0 0 0 0 0 0 0 0 0 127 0"/>
<feOffset dy="4"/>
<feGaussianBlur stdDeviation="5"/>
<feColorMatrix type="matrix" values="0 0 0 0 1 0 0 0 0 0.0375 0 0 0 0 0.0375 0 0 0 0.2 0"/>
<feBlend mode="normal" in2="BackgroundImageFix" result="effect1_dropShadow"/>
<feBlend mode="normal" in="SourceGraphic" in2="effect1_dropShadow" result="shape"/>
</filter>
<filter id="filter1_d" x="10" y="16" width="58" height="58" filterUnits="userSpaceOnUse" color-interpolation-filters="sRGB">
<feFlood flood-opacity="0" result="BackgroundImageFix"/>
<feColorMatrix in="SourceAlpha" type="matrix" values="0 0 0 0 0 0 0 0 0 0 0 0 0 0 0 0 0 0 127 0"/>
<feOffset dy="10"/>
<feGaussianBlur stdDeviation="5"/>
<feColorMatrix type="matrix" values="0 0 0 0 1 0 0 0 0 0.835294 0 0 0 0 0 0 0 0 0.2 0"/>
<feBlend mode="normal" in2="BackgroundImageFix" result="effect1_dropShadow"/>
<feBlend mode="normal" in="SourceGraphic" in2="effect1_dropShadow" result="shape"/>
</filter>
<linearGradient id="paint0_linear" x1="26.0167" y1="23.2833" x2="50.0833" y2="49.8833" gradientUnits="userSpaceOnUse">
<stop stop-color="#FFD500"/>
<stop offset="1" stop-color="#E1BE0B"/>
</linearGradient>
</defs>
</svg>
