<svg width="1313" height="450" viewBox="0 0 1313 450" fill="none" xmlns="http://www.w3.org/2000/svg">
<path d="M322.767 24.0729C322.767 26.4161 325.025 28.1837 328.02 28.1837C331.015 28.1837 333.273 26.4161 333.273 24.0729C333.273 21.7298 331.015 19.9622 328.02 19.9622C325.025 19.9622 322.767 21.7298 322.767 24.0729ZM328.02 22.7027C330.054 22.7027 331.172 23.7317 331.172 24.0729C331.172 24.4141 330.054 25.4432 328.02 25.4432C325.986 25.4432 324.868 24.4141 324.868 24.0729C324.868 23.7317 325.986 22.7027 328.02 22.7027Z" fill="black" fill-opacity="0.05"/>
<path d="M342.728 58.3294C342.728 60.6725 344.985 62.4402 347.98 62.4402C350.975 62.4402 353.233 60.6725 353.233 58.3294C353.233 55.9863 350.975 54.2186 347.98 54.2186C344.985 54.2186 342.728 55.9863 342.728 58.3294ZM351.132 58.3294C351.132 58.6706 350.014 59.6997 347.98 59.6997C345.946 59.6997 344.829 58.6706 344.829 58.3294C344.829 57.9882 345.946 56.9591 347.98 56.9591C350.014 56.9591 351.132 57.9882 351.132 58.3294Z" fill="black" fill-opacity="0.05"/>
<path d="M368.991 56.9592C368.984 56.8624 368.969 56.7668 368.947 56.6742C369.096 56.0078 368.839 55.3014 368.349 55.0299L362.515 51.8221C361.958 50.0093 359.968 48.7377 357.435 48.7377C356.684 48.7377 357.717 49.1926 353.15 46.6823C352.813 44.9599 351.206 43.654 349.031 43.3348C349.031 20.8625 349.072 21.8806 348.949 21.4997C348.84 21.1776 348.643 20.9195 348.397 20.7748C348.196 20.6611 348.404 20.7748 342.555 17.5602C341.997 15.7528 340.008 14.4812 337.475 14.4812C336.724 14.4812 337.756 14.9361 333.19 12.4258C332.286 7.86149 323.755 7.85464 322.85 12.4258C318.293 14.9307 319.319 14.4812 318.565 14.4812C316.032 14.4812 314.048 15.7528 313.485 17.5602C310.554 19.173 307.497 20.8488 307.644 20.7748C307.418 20.9018 307.236 21.1324 307.131 21.4229C306.95 21.8929 307.009 18.7085 307.009 67.9213C307.009 68.4728 307.263 68.9707 307.652 69.1847C349.782 92.3215 347.513 91.2157 347.98 91.2157C348.335 91.2157 347.014 91.8625 368.348 80.1468C368.544 80.0548 368.706 79.8686 368.801 79.6261C369.063 79.1095 368.991 80.7579 368.991 56.9592ZM349.031 68.1597L366.89 58.3514V77.9735L349.031 87.7819V68.1597ZM360.587 52.8485C360.587 53.1897 359.469 54.2187 357.435 54.2187C355.401 54.2187 354.283 53.1897 354.283 52.8485C354.283 52.5073 355.401 51.4782 357.435 51.4782C359.469 51.4782 360.587 52.5073 360.587 52.8485ZM357.435 56.9592C359.21 57.1403 360.955 56.2816 362.196 54.6161L365.235 56.2864L347.98 65.7632L330.725 56.2864L333.764 54.6161C335.005 56.2816 336.75 57.1403 338.525 56.9592C343.653 56.9592 345.268 52.3004 342.299 49.938L343.366 49.3516C345.292 52.1935 350.67 52.1921 352.594 49.3516L353.661 49.938C350.663 52.3209 352.368 56.9592 357.435 56.9592ZM342.811 46.6823C338.253 49.1871 339.279 48.7377 338.525 48.7377C335.993 48.7377 334.008 50.0093 333.445 51.8167L329.071 54.2187V33.9033L346.93 24.0949V43.3348C344.754 43.654 343.148 44.9599 342.811 46.6823ZM338.525 51.4782C340.559 51.4782 341.677 52.5073 341.677 52.8485C341.677 53.1897 340.559 54.2187 338.525 54.2187C336.492 54.2187 335.374 53.1897 335.374 52.8485C335.374 52.5073 336.492 51.4782 338.525 51.4782ZM309.111 24.0949L326.97 33.9033V54.2187L309.111 44.4159V24.0949ZM351.132 47.3674C351.132 47.7086 350.014 48.7377 347.98 48.7377C345.946 48.7377 344.829 47.7086 344.829 47.3674C344.829 47.0262 345.946 45.9972 347.98 45.9972C350.014 45.9972 351.132 47.0262 351.132 47.3674ZM340.626 18.592C340.626 18.9332 339.509 19.9622 337.475 19.9622C335.441 19.9622 334.323 18.9332 334.323 18.592C334.323 18.2508 335.441 17.2217 337.475 17.2217C339.509 17.2217 340.626 18.2508 340.626 18.592ZM328.02 11.7407C330.054 11.7407 331.172 12.7698 331.172 13.1109C331.172 13.4521 330.054 14.4812 328.02 14.4812C325.986 14.4812 324.868 13.4521 324.868 13.1109C324.868 12.7698 325.986 11.7407 328.02 11.7407ZM323.406 15.0951C325.332 17.937 330.709 17.9356 332.634 15.0951L333.701 15.6816C332.846 16.2387 332.282 17.3474 332.222 18.592C332.222 23.1878 340.038 24.147 342.236 20.3596L345.274 22.03L328.02 31.5067L310.766 22.03L313.804 20.3596C316 24.1429 323.818 23.1919 323.818 18.592C323.758 17.3474 323.194 16.2387 322.339 15.6816L323.406 15.0951ZM318.565 17.2217C320.599 17.2217 321.717 18.2508 321.717 18.592C321.717 18.9332 320.599 19.9622 318.565 19.9622C316.531 19.9622 315.414 18.9332 315.414 18.592C315.414 18.2508 316.531 17.2217 318.565 17.2217ZM309.111 47.3894L327.61 57.5498L346.93 68.1597V87.7819L309.111 67.0115V47.3894Z" fill="black" fill-opacity="0.05"/>
<path d="M344.198 80.3673L321.087 67.3087C320.74 67.1002 320.335 67.1528 320.027 67.4462C319.719 67.7395 319.557 68.2276 319.604 68.7213C319.651 69.2149 319.899 69.6367 320.252 69.8231L343.364 82.8803C343.711 83.0976 344.122 83.0497 344.434 82.7556C344.746 82.4614 344.91 81.9682 344.861 81.4701C344.811 80.9719 344.557 80.5488 344.198 80.3673Z" fill="black" fill-opacity="0.05"/>
<path d="M315.834 64.334L312.682 62.5526C312.15 62.2499 311.53 62.5674 311.298 63.2617C311.066 63.9561 311.31 64.7643 311.842 65.067L314.993 66.8484C315.338 67.0442 315.736 66.9855 316.038 66.6944C316.341 66.4034 316.501 65.9241 316.459 65.4372C316.416 64.9503 316.178 64.5298 315.834 64.334Z" fill="black" fill-opacity="0.05"/>
<path d="M969.767 374.073C969.767 376.416 972.025 378.184 975.02 378.184C978.015 378.184 980.273 376.416 980.273 374.073C980.273 371.73 978.015 369.962 975.02 369.962C972.025 369.962 969.767 371.73 969.767 374.073ZM975.02 372.703C977.054 372.703 978.172 373.732 978.172 374.073C978.172 374.414 977.054 375.443 975.02 375.443C972.986 375.443 971.868 374.414 971.868 374.073C971.868 373.732 972.986 372.703 975.02 372.703Z" fill="black" fill-opacity="0.05"/>
<path d="M989.728 408.329C989.728 410.673 991.985 412.44 994.98 412.44C997.975 412.44 1000.23 410.673 1000.23 408.329C1000.23 405.986 997.975 404.219 994.98 404.219C991.985 404.219 989.728 405.986 989.728 408.329ZM998.132 408.329C998.132 408.671 997.014 409.7 994.98 409.7C992.946 409.7 991.829 408.671 991.829 408.329C991.829 407.988 992.946 406.959 994.98 406.959C997.014 406.959 998.132 407.988 998.132 408.329Z" fill="black" fill-opacity="0.05"/>
<path d="M1015.99 406.959C1015.98 406.862 1015.97 406.767 1015.95 406.674C1016.1 406.008 1015.84 405.301 1015.35 405.03L1009.52 401.822C1008.96 400.009 1006.97 398.738 1004.43 398.738C1003.68 398.738 1004.72 399.193 1000.15 396.682C999.813 394.96 998.206 393.654 996.031 393.335C996.031 370.863 996.072 371.881 995.949 371.5C995.84 371.178 995.643 370.919 995.397 370.775C995.196 370.661 995.404 370.775 989.555 367.56C988.997 365.753 987.008 364.481 984.475 364.481C983.724 364.481 984.756 364.936 980.19 362.426C979.286 357.861 970.755 357.855 969.85 362.426C965.293 364.931 966.319 364.481 965.565 364.481C963.032 364.481 961.048 365.753 960.485 367.56C957.554 369.173 954.497 370.849 954.644 370.775C954.418 370.902 954.236 371.132 954.131 371.423C953.95 371.893 954.009 368.708 954.009 417.921C954.009 418.473 954.263 418.971 954.652 419.185C996.782 442.322 994.513 441.216 994.98 441.216C995.335 441.216 994.014 441.862 1015.35 430.147C1015.54 430.055 1015.71 429.869 1015.8 429.626C1016.06 429.109 1015.99 430.758 1015.99 406.959ZM996.031 418.16L1013.89 408.351V427.974L996.031 437.782V418.16ZM1007.59 402.848C1007.59 403.19 1006.47 404.219 1004.43 404.219C1002.4 404.219 1001.28 403.19 1001.28 402.848C1001.28 402.507 1002.4 401.478 1004.43 401.478C1006.47 401.478 1007.59 402.507 1007.59 402.848ZM1004.43 406.959C1006.21 407.14 1007.96 406.282 1009.2 404.616L1012.24 406.286L994.98 415.763L977.725 406.286L980.764 404.616C982.005 406.282 983.75 407.14 985.525 406.959C990.653 406.959 992.268 402.3 989.299 399.938L990.366 399.352C992.292 402.193 997.67 402.192 999.594 399.352L1000.66 399.938C997.663 402.321 999.368 406.959 1004.43 406.959ZM989.811 396.682C985.253 399.187 986.279 398.738 985.525 398.738C982.993 398.738 981.008 400.009 980.445 401.817L976.071 404.219V383.903L993.93 374.095V393.335C991.754 393.654 990.148 394.96 989.811 396.682ZM985.525 401.478C987.559 401.478 988.677 402.507 988.677 402.848C988.677 403.19 987.559 404.219 985.525 404.219C983.492 404.219 982.374 403.19 982.374 402.848C982.374 402.507 983.492 401.478 985.525 401.478ZM956.111 374.095L973.97 383.903V404.219L956.111 394.416V374.095ZM998.132 397.367C998.132 397.709 997.014 398.738 994.98 398.738C992.946 398.738 991.829 397.709 991.829 397.367C991.829 397.026 992.946 395.997 994.98 395.997C997.014 395.997 998.132 397.026 998.132 397.367ZM987.626 368.592C987.626 368.933 986.509 369.962 984.475 369.962C982.441 369.962 981.323 368.933 981.323 368.592C981.323 368.251 982.441 367.222 984.475 367.222C986.509 367.222 987.626 368.251 987.626 368.592ZM975.02 361.741C977.054 361.741 978.172 362.77 978.172 363.111C978.172 363.452 977.054 364.481 975.02 364.481C972.986 364.481 971.868 363.452 971.868 363.111C971.868 362.77 972.986 361.741 975.02 361.741ZM970.406 365.095C972.332 367.937 977.709 367.936 979.634 365.095L980.701 365.682C979.846 366.239 979.282 367.347 979.222 368.592C979.222 373.188 987.038 374.147 989.236 370.36L992.274 372.03L975.02 381.507L957.766 372.03L960.804 370.36C963 374.143 970.818 373.192 970.818 368.592C970.758 367.347 970.194 366.239 969.339 365.682L970.406 365.095ZM965.565 367.222C967.599 367.222 968.717 368.251 968.717 368.592C968.717 368.933 967.599 369.962 965.565 369.962C963.531 369.962 962.414 368.933 962.414 368.592C962.414 368.251 963.531 367.222 965.565 367.222ZM956.111 397.389L974.61 407.55L993.93 418.16V437.782L956.111 417.011V397.389Z" fill="black" fill-opacity="0.05"/>
<path d="M991.198 430.367L968.087 417.309C967.74 417.1 967.335 417.153 967.027 417.446C966.719 417.74 966.557 418.228 966.604 418.721C966.651 419.215 966.899 419.637 967.252 419.823L990.364 432.88C990.711 433.098 991.122 433.05 991.434 432.756C991.746 432.461 991.91 431.968 991.861 431.47C991.811 430.972 991.557 430.549 991.198 430.367Z" fill="black" fill-opacity="0.05"/>
<path d="M962.834 414.334L959.682 412.553C959.15 412.25 958.53 412.567 958.298 413.262C958.066 413.956 958.31 414.764 958.842 415.067L961.993 416.848C962.338 417.044 962.736 416.986 963.038 416.694C963.341 416.403 963.501 415.924 963.459 415.437C963.416 414.95 963.178 414.53 962.834 414.334Z" fill="black" fill-opacity="0.05"/>
<path d="M1285.7 15.5838C1285.7 18.019 1288.04 19.8561 1291.15 19.8561C1294.27 19.8561 1296.61 18.019 1296.61 15.5838C1296.61 13.1486 1294.27 11.3115 1291.15 11.3115C1288.04 11.3115 1285.7 13.1486 1285.7 15.5838ZM1294.43 15.5838C1294.43 15.9384 1293.27 17.0079 1291.15 17.0079C1289.04 17.0079 1287.88 15.9384 1287.88 15.5838C1287.88 15.2292 1289.04 14.1597 1291.15 14.1597C1293.27 14.1597 1294.43 15.2292 1294.43 15.5838Z" fill="black" fill-opacity="0.05"/>
<path fill-rule="evenodd" clip-rule="evenodd" d="M1312.99 14.1597C1312.98 14.0591 1312.97 13.9597 1312.94 13.8635C1313.1 13.1709 1312.83 12.4368 1312.32 12.1546L1306.26 8.82082C1305.68 6.93674 1303.61 5.61519 1300.98 5.61519C1300.2 5.61519 1301.27 6.08799 1296.53 3.47905C1296.18 1.68897 1294.51 0.331813 1292.25 0H1290.06C1287.8 0.331813 1286.13 1.68897 1285.78 3.47905C1281.05 6.08229 1282.11 5.61519 1281.33 5.61519C1278.7 5.61519 1276.63 6.93675 1276.05 8.81512L1271.5 11.3116C1271.5 11.3116 1269.33 12.6675 1268.67 12.9554C1268 13.2434 1268 13.7781 1268 13.7781V34.0764V36.9976C1268.39 37.2128 1269.13 37.6675 1269.85 38.1094L1271.5 39.1047C1292.15 50.4718 1290.77 49.762 1291.15 49.762C1291.52 49.762 1290.15 50.4342 1312.32 38.2582C1312.53 38.1626 1312.69 37.969 1312.79 37.717C1313.07 37.1802 1312.99 38.8933 1312.99 14.1597ZM1310.81 15.6066L1292.25 25.8003V46.1932L1310.81 35.9996V15.6066ZM1300.98 11.3116C1303.09 11.3116 1304.26 10.2421 1304.26 9.88746C1304.26 9.53286 1303.09 8.46337 1300.98 8.46337C1298.87 8.46337 1297.71 9.53286 1297.71 9.88746C1297.71 10.2421 1298.87 11.3116 1300.98 11.3116ZM1305.93 11.7245C1304.64 13.4555 1302.83 14.3479 1300.98 14.1597C1295.71 14.1597 1293.94 9.33918 1297.06 6.86269L1295.95 6.25318C1293.95 9.20532 1288.36 9.20675 1286.36 6.25318L1285.25 6.86269C1288.34 9.31782 1286.66 14.1597 1281.33 14.1597C1279.48 14.3479 1277.67 13.4555 1276.38 11.7245L1273.22 13.4605L1291.15 23.3095L1309.09 13.4605L1305.93 11.7245ZM1284.6 9.88746C1284.6 9.53286 1283.44 8.46337 1281.33 8.46337C1279.21 8.46337 1278.05 9.53286 1278.05 9.88746C1278.05 10.2421 1279.21 11.3116 1281.33 11.3116C1283.44 11.3116 1284.6 10.2421 1284.6 9.88746ZM1291.15 5.61519C1293.27 5.61519 1294.43 4.5457 1294.43 4.1911C1294.43 3.8365 1293.27 2.76701 1291.15 2.76701C1289.04 2.76701 1287.88 3.8365 1287.88 4.1911C1287.88 4.5457 1289.04 5.61519 1291.15 5.61519ZM1290.06 46.1932V25.8003L1270.18 14.8826L1270.18 35.2756L1290.06 46.1932Z" fill="black" fill-opacity="0.05"/>
<path fill-rule="evenodd" clip-rule="evenodd" d="M44.9905 414.16C44.9836 414.059 44.9683 413.96 44.9446 413.864C45.0993 413.171 44.8324 412.437 44.3234 412.155L38.2606 408.821C37.6809 406.937 35.613 405.615 32.9806 405.615C32.2 405.615 33.2733 406.088 28.5272 403.479C28.1767 401.689 26.5073 400.332 24.2462 400H22.0626C19.8015 400.332 18.1321 401.689 17.7817 403.479C13.0454 406.082 14.111 405.615 13.3282 405.615C10.6959 405.615 8.63344 406.937 8.04824 408.815L3.50198 411.312C3.50198 411.312 1.332 412.668 0.666001 412.955C0 413.243 0 413.778 0 413.778V434.076V436.998C0.390987 437.213 1.12941 437.668 1.8477 438.109L3.50198 439.105C24.1473 450.472 22.7726 449.762 23.1544 449.762C23.5235 449.762 22.15 450.434 44.3223 438.258C44.5263 438.163 44.6946 437.969 44.7929 437.717C45.0658 437.18 44.9905 438.893 44.9905 414.16ZM42.8069 415.607L24.2462 425.8V446.193L42.8069 436V415.607ZM32.9806 411.312C35.0944 411.312 36.2561 410.242 36.2561 409.887C36.2561 409.533 35.0944 408.463 32.9806 408.463C30.8669 408.463 29.7052 409.533 29.7052 409.887C29.7052 410.242 30.8669 411.312 32.9806 411.312ZM37.9287 411.725C36.639 413.455 34.8255 414.348 32.9806 414.16C27.7149 414.16 25.9429 409.339 29.0589 406.863L27.9496 406.253C25.9494 409.205 20.3605 409.207 18.3592 406.253L17.25 406.863C20.3354 409.318 18.6573 414.16 13.3282 414.16C11.4833 414.348 9.66989 413.455 8.38015 411.725L5.22156 413.461L23.1544 423.31L41.0873 413.461L37.9287 411.725ZM16.6036 409.887C16.6036 409.533 15.4419 408.463 13.3282 408.463C11.2145 408.463 10.0528 409.533 10.0528 409.887C10.0528 410.242 11.2145 411.312 13.3282 411.312C15.4419 411.312 16.6036 410.242 16.6036 409.887ZM23.1544 405.615C25.2682 405.615 26.4298 404.546 26.4298 404.191C26.4298 403.837 25.2682 402.767 23.1544 402.767C21.0407 402.767 19.879 403.837 19.879 404.191C19.879 404.546 21.0407 405.615 23.1544 405.615ZM22.0626 446.193V425.8L2.18296 414.883L2.18361 435.276L22.0626 446.193Z" fill="black" fill-opacity="0.05"/>
</svg>
