<svg width="10" height="10" viewBox="0 0 10 10" fill="none" xmlns="http://www.w3.org/2000/svg">
<g clip-path="url(#clip0)">
<path d="M7.60268 6.61533C7.27597 6.29279 6.86812 6.29279 6.54349 6.61533C6.29587 6.86087 6.04824 7.10642 5.80477 7.35613C5.73818 7.4248 5.682 7.43936 5.60084 7.39358C5.44061 7.30619 5.26998 7.23544 5.11599 7.13971C4.39808 6.68816 3.7967 6.10758 3.26399 5.45418C2.99971 5.12956 2.76457 4.78205 2.60018 4.39084C2.56688 4.31176 2.57313 4.25974 2.63763 4.19523C2.88526 3.95593 3.12665 3.71038 3.37011 3.46484C3.7093 3.12357 3.7093 2.72403 3.36803 2.38068C3.17451 2.18508 2.98098 1.99364 2.78746 1.79803C2.58769 1.59826 2.39001 1.39642 2.18816 1.19873C1.86146 0.880351 1.4536 0.880351 1.12898 1.20081C0.879269 1.44636 0.639964 1.69815 0.386094 1.93953C0.150952 2.16219 0.03234 2.43479 0.00736908 2.75317C-0.0321681 3.27131 0.0947671 3.76032 0.273725 4.23685C0.639964 5.2232 1.19765 6.09926 1.87394 6.90249C2.78746 7.98872 3.87785 8.84814 5.15345 9.46825C5.72778 9.74709 6.32292 9.96142 6.97008 9.9968C7.41539 10.0218 7.80244 9.9094 8.1125 9.56189C8.32475 9.32466 8.56405 9.10825 8.78879 8.88143C9.12174 8.54432 9.12382 8.13647 8.79295 7.80352C8.39758 7.40607 8.00013 7.0107 7.60268 6.61533Z" fill="white"/>
<path d="M7.20523 4.95661L7.97308 4.82551C7.85239 4.12008 7.51944 3.48124 7.01378 2.9735C6.47899 2.43871 5.8027 2.1016 5.05773 1.99756L4.94952 2.76957C5.52593 2.85073 6.05032 3.11084 6.46442 3.52494C6.85563 3.91615 7.11158 4.41141 7.20523 4.95661Z" fill="white"/>
<path d="M8.40587 1.61894C7.51941 0.732479 6.3978 0.172715 5.15966 0L5.05145 0.772016C6.12104 0.921841 7.09074 1.40669 7.85651 2.17038C8.58275 2.89662 9.05928 3.8143 9.23199 4.82354L9.99985 4.69244C9.798 3.52297 9.24656 2.46171 8.40587 1.61894Z" fill="white"/>
</g>
<defs>
<clipPath id="clip0">
<rect width="10" height="10" fill="white"/>
</clipPath>
</defs>
</svg>
