<svg width="60" height="43" viewBox="0 0 60 43" fill="none" xmlns="http://www.w3.org/2000/svg">
<path d="M58.7638 6.5969C58.0721 4.02656 56.0456 2.00051 53.4757 1.30837C48.7805 0.0234375 29.9994 0.0234375 29.9994 0.0234375C29.9994 0.0234375 11.2188 0.0234375 6.52356 1.25939C4.00313 1.95107 1.92718 4.02702 1.2355 6.5969C0 11.2917 0 21.0283 0 21.0283C0 21.0283 0 30.8139 1.2355 35.4597C1.92763 38.0296 3.95369 40.0561 6.52402 40.7482C11.2683 42.0331 29.9999 42.0331 29.9999 42.0331C29.9999 42.0331 48.7805 42.0331 53.4757 40.7972C56.0461 40.1055 58.0721 38.079 58.7642 35.5091C59.9997 30.8139 59.9997 21.0777 59.9997 21.0777C59.9997 21.0777 60.0492 11.2917 58.7638 6.5969Z" fill="#FF0000"/>
<path d="M24.0197 30.0236L39.6372 21.0285L24.0197 12.0334V30.0236Z" fill="white"/>
</svg>
