<svg width="1313" height="346" viewBox="0 0 1313 346" fill="none" xmlns="http://www.w3.org/2000/svg">
<path d="M595.767 15.0729C595.767 17.4161 598.025 19.1837 601.02 19.1837C604.015 19.1837 606.273 17.4161 606.273 15.0729C606.273 12.7298 604.015 10.9622 601.02 10.9622C598.025 10.9622 595.767 12.7298 595.767 15.0729ZM601.02 13.7027C603.054 13.7027 604.172 14.7317 604.172 15.0729C604.172 15.4141 603.054 16.4432 601.02 16.4432C598.986 16.4432 597.868 15.4141 597.868 15.0729C597.868 14.7317 598.986 13.7027 601.02 13.7027Z" fill="black" fill-opacity="0.05"/>
<path d="M615.728 49.3294C615.728 51.6725 617.985 53.4402 620.98 53.4402C623.975 53.4402 626.233 51.6725 626.233 49.3294C626.233 46.9863 623.975 45.2186 620.98 45.2186C617.985 45.2186 615.728 46.9863 615.728 49.3294ZM624.132 49.3294C624.132 49.6706 623.014 50.6997 620.98 50.6997C618.946 50.6997 617.829 49.6706 617.829 49.3294C617.829 48.9882 618.946 47.9591 620.98 47.9591C623.014 47.9591 624.132 48.9882 624.132 49.3294Z" fill="black" fill-opacity="0.05"/>
<path d="M641.991 47.9592C641.984 47.8624 641.969 47.7668 641.947 47.6742C642.096 47.0078 641.839 46.3014 641.349 46.0299L635.515 42.8221C634.958 41.0093 632.968 39.7377 630.435 39.7377C629.684 39.7377 630.717 40.1926 626.15 37.6823C625.813 35.9599 624.206 34.654 622.031 34.3348C622.031 11.8625 622.072 12.8806 621.949 12.4997C621.84 12.1776 621.643 11.9195 621.397 11.7748C621.196 11.6611 621.404 11.7748 615.555 8.56018C614.997 6.75281 613.008 5.48121 610.475 5.48121C609.724 5.48121 610.756 5.93613 606.19 3.42582C605.286 -1.13851 596.755 -1.14536 595.85 3.42582C591.293 5.93065 592.319 5.48121 591.565 5.48121C589.032 5.48121 587.048 6.75281 586.485 8.56018C583.554 10.173 580.497 11.8488 580.644 11.7748C580.418 11.9018 580.236 12.1324 580.131 12.4229C579.95 12.8929 580.009 9.70846 580.009 58.9213C580.009 59.4728 580.263 59.9707 580.652 60.1847C622.782 83.3215 620.513 82.2157 620.98 82.2157C621.335 82.2157 620.014 82.8625 641.348 71.1468C641.544 71.0548 641.706 70.8686 641.801 70.6261C642.063 70.1095 641.991 71.7579 641.991 47.9592ZM622.031 59.1597L639.89 49.3514V68.9735L622.031 78.7819V59.1597ZM633.587 43.8485C633.587 44.1897 632.469 45.2187 630.435 45.2187C628.401 45.2187 627.283 44.1897 627.283 43.8485C627.283 43.5073 628.401 42.4782 630.435 42.4782C632.469 42.4782 633.587 43.5073 633.587 43.8485ZM630.435 47.9592C632.21 48.1403 633.955 47.2816 635.196 45.6161L638.235 47.2864L620.98 56.7632L603.725 47.2864L606.764 45.6161C608.005 47.2816 609.75 48.1403 611.525 47.9592C616.653 47.9592 618.268 43.3004 615.299 40.938L616.366 40.3516C618.292 43.1935 623.67 43.1921 625.594 40.3516L626.661 40.938C623.663 43.3209 625.368 47.9592 630.435 47.9592ZM615.811 37.6823C611.253 40.1871 612.279 39.7377 611.525 39.7377C608.993 39.7377 607.008 41.0093 606.445 42.8167L602.071 45.2187V24.9033L619.93 15.0949V34.3348C617.754 34.654 616.148 35.9599 615.811 37.6823ZM611.525 42.4782C613.559 42.4782 614.677 43.5073 614.677 43.8485C614.677 44.1897 613.559 45.2187 611.525 45.2187C609.492 45.2187 608.374 44.1897 608.374 43.8485C608.374 43.5073 609.492 42.4782 611.525 42.4782ZM582.111 15.0949L599.97 24.9033V45.2187L582.111 35.4159V15.0949ZM624.132 38.3674C624.132 38.7086 623.014 39.7377 620.98 39.7377C618.946 39.7377 617.829 38.7086 617.829 38.3674C617.829 38.0262 618.946 36.9972 620.98 36.9972C623.014 36.9972 624.132 38.0262 624.132 38.3674ZM613.626 9.59199C613.626 9.93318 612.509 10.9622 610.475 10.9622C608.441 10.9622 607.323 9.93318 607.323 9.59199C607.323 9.25079 608.441 8.22173 610.475 8.22173C612.509 8.22173 613.626 9.25079 613.626 9.59199ZM601.02 2.74069C603.054 2.74069 604.172 3.76975 604.172 4.11095C604.172 4.45214 603.054 5.48121 601.02 5.48121C598.986 5.48121 597.868 4.45214 597.868 4.11095C597.868 3.76975 598.986 2.74069 601.02 2.74069ZM596.406 6.09508C598.332 8.937 603.709 8.93563 605.634 6.09508L606.701 6.68156C605.846 7.23865 605.282 8.34738 605.222 9.59199C605.222 14.1878 613.038 15.147 615.236 11.3596L618.274 13.03L601.02 22.5067L583.766 13.03L586.804 11.3596C589 15.1429 596.818 14.1919 596.818 9.59199C596.758 8.34738 596.194 7.23865 595.339 6.68156L596.406 6.09508ZM591.565 8.22173C593.599 8.22173 594.717 9.25079 594.717 9.59199C594.717 9.93318 593.599 10.9622 591.565 10.9622C589.531 10.9622 588.414 9.93318 588.414 9.59199C588.414 9.25079 589.531 8.22173 591.565 8.22173ZM582.111 38.3894L600.61 48.5498L619.93 59.1597V78.7819L582.111 58.0115V38.3894Z" fill="black" fill-opacity="0.05"/>
<path d="M617.198 71.3673L594.087 58.3087C593.74 58.1002 593.335 58.1528 593.027 58.4462C592.719 58.7395 592.557 59.2276 592.604 59.7213C592.651 60.2149 592.899 60.6367 593.252 60.8231L616.364 73.8803C616.711 74.0976 617.122 74.0497 617.434 73.7556C617.746 73.4614 617.91 72.9682 617.861 72.4701C617.811 71.9719 617.557 71.5488 617.198 71.3673Z" fill="black" fill-opacity="0.05"/>
<path d="M588.834 55.334L585.682 53.5526C585.15 53.2499 584.53 53.5674 584.298 54.2617C584.066 54.9561 584.31 55.7643 584.842 56.067L587.993 57.8484C588.338 58.0442 588.736 57.9855 589.038 57.6944C589.341 57.4034 589.501 56.9241 589.459 56.4372C589.416 55.9503 589.178 55.5298 588.834 55.334Z" fill="black" fill-opacity="0.05"/>
<path d="M595.767 261.073C595.767 263.416 598.025 265.184 601.02 265.184C604.015 265.184 606.273 263.416 606.273 261.073C606.273 258.73 604.015 256.962 601.02 256.962C598.025 256.962 595.767 258.73 595.767 261.073ZM601.02 259.703C603.054 259.703 604.172 260.732 604.172 261.073C604.172 261.414 603.054 262.443 601.02 262.443C598.986 262.443 597.868 261.414 597.868 261.073C597.868 260.732 598.986 259.703 601.02 259.703Z" fill="black" fill-opacity="0.05"/>
<path d="M615.728 295.329C615.728 297.673 617.985 299.44 620.98 299.44C623.975 299.44 626.233 297.673 626.233 295.329C626.233 292.986 623.975 291.219 620.98 291.219C617.985 291.219 615.728 292.986 615.728 295.329ZM624.132 295.329C624.132 295.671 623.014 296.7 620.98 296.7C618.946 296.7 617.829 295.671 617.829 295.329C617.829 294.988 618.946 293.959 620.98 293.959C623.014 293.959 624.132 294.988 624.132 295.329Z" fill="black" fill-opacity="0.05"/>
<path d="M641.991 293.959C641.984 293.862 641.969 293.767 641.947 293.674C642.096 293.008 641.839 292.301 641.349 292.03L635.515 288.822C634.958 287.009 632.968 285.738 630.435 285.738C629.684 285.738 630.717 286.193 626.15 283.682C625.813 281.96 624.206 280.654 622.031 280.335C622.031 257.863 622.072 258.881 621.949 258.5C621.84 258.178 621.643 257.919 621.397 257.775C621.196 257.661 621.404 257.775 615.555 254.56C614.997 252.753 613.008 251.481 610.475 251.481C609.724 251.481 610.756 251.936 606.19 249.426C605.286 244.861 596.755 244.855 595.85 249.426C591.293 251.931 592.319 251.481 591.565 251.481C589.032 251.481 587.048 252.753 586.485 254.56C583.554 256.173 580.497 257.849 580.644 257.775C580.418 257.902 580.236 258.132 580.131 258.423C579.95 258.893 580.009 255.708 580.009 304.921C580.009 305.473 580.263 305.971 580.652 306.185C622.782 329.322 620.513 328.216 620.98 328.216C621.335 328.216 620.014 328.862 641.348 317.147C641.544 317.055 641.706 316.869 641.801 316.626C642.063 316.109 641.991 317.758 641.991 293.959ZM622.031 305.16L639.89 295.351V314.974L622.031 324.782V305.16ZM633.587 289.848C633.587 290.19 632.469 291.219 630.435 291.219C628.401 291.219 627.283 290.19 627.283 289.848C627.283 289.507 628.401 288.478 630.435 288.478C632.469 288.478 633.587 289.507 633.587 289.848ZM630.435 293.959C632.21 294.14 633.955 293.282 635.196 291.616L638.235 293.286L620.98 302.763L603.725 293.286L606.764 291.616C608.005 293.282 609.75 294.14 611.525 293.959C616.653 293.959 618.268 289.3 615.299 286.938L616.366 286.352C618.292 289.193 623.67 289.192 625.594 286.352L626.661 286.938C623.663 289.321 625.368 293.959 630.435 293.959ZM615.811 283.682C611.253 286.187 612.279 285.738 611.525 285.738C608.993 285.738 607.008 287.009 606.445 288.817L602.071 291.219V270.903L619.93 261.095V280.335C617.754 280.654 616.148 281.96 615.811 283.682ZM611.525 288.478C613.559 288.478 614.677 289.507 614.677 289.848C614.677 290.19 613.559 291.219 611.525 291.219C609.492 291.219 608.374 290.19 608.374 289.848C608.374 289.507 609.492 288.478 611.525 288.478ZM582.111 261.095L599.97 270.903V291.219L582.111 281.416V261.095ZM624.132 284.367C624.132 284.709 623.014 285.738 620.98 285.738C618.946 285.738 617.829 284.709 617.829 284.367C617.829 284.026 618.946 282.997 620.98 282.997C623.014 282.997 624.132 284.026 624.132 284.367ZM613.626 255.592C613.626 255.933 612.509 256.962 610.475 256.962C608.441 256.962 607.323 255.933 607.323 255.592C607.323 255.251 608.441 254.222 610.475 254.222C612.509 254.222 613.626 255.251 613.626 255.592ZM601.02 248.741C603.054 248.741 604.172 249.77 604.172 250.111C604.172 250.452 603.054 251.481 601.02 251.481C598.986 251.481 597.868 250.452 597.868 250.111C597.868 249.77 598.986 248.741 601.02 248.741ZM596.406 252.095C598.332 254.937 603.709 254.936 605.634 252.095L606.701 252.682C605.846 253.239 605.282 254.347 605.222 255.592C605.222 260.188 613.038 261.147 615.236 257.36L618.274 259.03L601.02 268.507L583.766 259.03L586.804 257.36C589 261.143 596.818 260.192 596.818 255.592C596.758 254.347 596.194 253.239 595.339 252.682L596.406 252.095ZM591.565 254.222C593.599 254.222 594.717 255.251 594.717 255.592C594.717 255.933 593.599 256.962 591.565 256.962C589.531 256.962 588.414 255.933 588.414 255.592C588.414 255.251 589.531 254.222 591.565 254.222ZM582.111 284.389L600.61 294.55L619.93 305.16V324.782L582.111 304.011V284.389Z" fill="black" fill-opacity="0.05"/>
<path d="M617.198 317.367L594.087 304.309C593.74 304.1 593.335 304.153 593.027 304.446C592.719 304.74 592.557 305.228 592.604 305.721C592.651 306.215 592.899 306.637 593.252 306.823L616.364 319.88C616.711 320.098 617.122 320.05 617.434 319.756C617.746 319.461 617.91 318.968 617.861 318.47C617.811 317.972 617.557 317.549 617.198 317.367Z" fill="black" fill-opacity="0.05"/>
<path d="M588.834 301.334L585.682 299.553C585.15 299.25 584.53 299.567 584.298 300.262C584.066 300.956 584.31 301.764 584.842 302.067L587.993 303.848C588.338 304.044 588.736 303.986 589.038 303.694C589.341 303.403 589.501 302.924 589.459 302.437C589.416 301.95 589.178 301.53 588.834 301.334Z" fill="black" fill-opacity="0.05"/>
<path d="M15.7674 17.0729C15.7674 19.4161 18.025 21.1837 21.0201 21.1837C24.0151 21.1837 26.2727 19.4161 26.2727 17.0729C26.2727 14.7298 24.0151 12.9622 21.0201 12.9622C18.025 12.9622 15.7674 14.7298 15.7674 17.0729ZM21.0201 15.7027C23.0539 15.7027 24.1716 16.7317 24.1716 17.0729C24.1716 17.4141 23.0539 18.4432 21.0201 18.4432C18.9862 18.4432 17.8685 17.4141 17.8685 17.0729C17.8685 16.7317 18.9862 15.7027 21.0201 15.7027Z" fill="black" fill-opacity="0.05"/>
<path d="M35.7275 51.3294C35.7275 53.6725 37.9851 55.4402 40.9802 55.4402C43.9753 55.4402 46.2329 53.6725 46.2329 51.3294C46.2329 48.9863 43.9753 47.2186 40.9802 47.2186C37.9851 47.2186 35.7275 48.9863 35.7275 51.3294ZM44.1318 51.3294C44.1318 51.6706 43.014 52.6997 40.9802 52.6997C38.9464 52.6997 37.8286 51.6706 37.8286 51.3294C37.8286 50.9882 38.9464 49.9591 40.9802 49.9591C43.014 49.9591 44.1318 50.9882 44.1318 51.3294Z" fill="black" fill-opacity="0.05"/>
<path d="M61.9908 49.9592C61.9842 49.8624 61.9695 49.7668 61.9467 49.6742C62.0955 49.0078 61.8388 48.3014 61.349 48.0299L55.5154 44.8221C54.9575 43.0093 52.9678 41.7377 50.435 41.7377C49.6838 41.7377 50.7165 42.1926 46.1499 39.6823C45.8126 37.9599 44.2064 36.654 42.0307 36.3348C42.0307 13.8625 42.0717 14.8806 41.9488 14.4997C41.8397 14.1776 41.6433 13.9195 41.3973 13.7748C41.1955 13.6611 41.4036 13.7748 35.5552 10.5602C34.9974 8.75281 33.0077 7.48121 30.4749 7.48121C29.7237 7.48121 30.7564 7.93613 26.1898 5.42582C25.2863 0.861486 16.7549 0.854635 15.8504 5.42582C11.2932 7.93065 12.3185 7.48121 11.5653 7.48121C9.03247 7.48121 7.04801 8.75281 6.48493 10.5602C3.55394 12.173 0.496895 13.8488 0.643969 13.7748C0.418045 13.9018 0.235648 14.1324 0.13131 14.4229C-0.0504325 14.8929 0.00944776 11.7085 0.00944776 60.9213C0.00930374 61.4728 0.26267 61.9707 0.652373 62.1847C42.7819 85.3215 40.5127 84.2157 40.9802 84.2157C41.3353 84.2157 40.0137 84.8625 61.3479 73.1468C61.5442 73.0548 61.7061 72.8686 61.8007 72.6261C62.0633 72.1095 61.9908 73.7579 61.9908 49.9592ZM42.0307 61.1597L59.8898 51.3514V70.9735L42.0307 80.7819V61.1597ZM53.5866 45.8485C53.5866 46.1897 52.4688 47.2187 50.435 47.2187C48.4011 47.2187 47.2834 46.1897 47.2834 45.8485C47.2834 45.5073 48.4011 44.4782 50.435 44.4782C52.4688 44.4782 53.5866 45.5073 53.5866 45.8485ZM50.435 49.9592C52.2101 50.1403 53.955 49.2816 55.196 47.6161L58.2352 49.2864L40.9802 58.7632L23.7252 49.2864L26.7644 47.6161C28.0054 49.2816 29.7502 50.1403 31.5254 49.9592C36.653 49.9592 38.2677 45.3004 35.2989 42.938L36.3663 42.3516C38.2919 45.1935 43.6696 45.1921 45.5941 42.3516L46.6615 42.938C43.6632 45.3209 45.3683 49.9592 50.435 49.9592ZM35.8105 39.6823C31.2533 42.1871 32.2786 41.7377 31.5254 41.7377C28.9926 41.7377 27.0081 43.0093 26.445 44.8167L22.0706 47.2187V26.9033L39.9297 17.0949V36.3348C37.754 36.654 36.1477 37.9599 35.8105 39.6823ZM31.5254 44.4782C33.5592 44.4782 34.677 45.5073 34.677 45.8485C34.677 46.1897 33.5592 47.2187 31.5254 47.2187C29.4916 47.2187 28.3738 46.1897 28.3738 45.8485C28.3738 45.5073 29.4916 44.4782 31.5254 44.4782ZM2.11051 17.0949L19.9696 26.9033V47.2187L2.11051 37.4159V17.0949ZM44.1318 40.3674C44.1318 40.7086 43.014 41.7377 40.9802 41.7377C38.9464 41.7377 37.8286 40.7086 37.8286 40.3674C37.8286 40.0262 38.9464 38.9972 40.9802 38.9972C43.014 38.9972 44.1318 40.0262 44.1318 40.3674ZM33.6265 11.592C33.6265 11.9332 32.5087 12.9622 30.4749 12.9622C28.441 12.9622 27.3233 11.9332 27.3233 11.592C27.3233 11.2508 28.441 10.2217 30.4749 10.2217C32.5087 10.2217 33.6265 11.2508 33.6265 11.592ZM21.0201 4.74069C23.0539 4.74069 24.1717 5.76975 24.1717 6.11095C24.1717 6.45214 23.0539 7.48121 21.0201 7.48121C18.9863 7.48121 17.8685 6.45214 17.8685 6.11095C17.8685 5.76975 18.9863 4.74069 21.0201 4.74069ZM16.4061 8.09508C18.3318 10.937 23.7094 10.9356 25.634 8.09508L26.7014 8.68156C25.846 9.23865 25.2825 10.3474 25.2222 11.592C25.2222 16.1878 33.0382 17.147 35.2359 13.3596L38.274 15.03L21.0201 24.5067L3.76615 15.03L6.80429 13.3596C8.9999 17.1429 16.818 16.1919 16.818 11.592C16.7577 10.3474 16.1942 9.23865 15.3388 8.68156L16.4061 8.09508ZM11.5653 10.2217C13.5991 10.2217 14.7169 11.2508 14.7169 11.592C14.7169 11.9332 13.5991 12.9622 11.5653 12.9622C9.53147 12.9622 8.4137 11.9332 8.4137 11.592C8.4137 11.2508 9.53147 10.2217 11.5653 10.2217ZM2.11051 40.3894L20.6104 50.5498L39.9297 61.1597V80.7819L2.11051 60.0115V40.3894Z" fill="black" fill-opacity="0.05"/>
<path d="M37.1983 73.3673L14.0866 60.3087C13.7403 60.1002 13.3346 60.1528 13.0266 60.4462C12.7186 60.7395 12.5567 61.2276 12.6036 61.7213C12.6505 62.2149 12.8989 62.6367 13.2524 62.8231L36.3641 75.8803C36.7113 76.0976 37.1217 76.0497 37.4338 75.7556C37.7459 75.4614 37.9096 74.9682 37.8605 74.4701C37.8114 73.9719 37.5573 73.5488 37.1983 73.3673Z" fill="black" fill-opacity="0.05"/>
<path d="M8.83388 57.334L5.68229 55.5526C5.14996 55.2499 4.53029 55.5674 4.29821 56.2617C4.06613 56.9561 4.30953 57.7643 4.84186 58.067L7.99346 59.8484C8.33781 60.0442 8.7361 59.9855 9.03829 59.6944C9.34048 59.4034 9.50067 58.9241 9.4585 58.4372C9.41634 57.9503 9.17824 57.5298 8.83388 57.334Z" fill="black" fill-opacity="0.05"/>
<path d="M1266.77 278.073C1266.77 280.416 1269.02 282.184 1272.02 282.184C1275.02 282.184 1277.27 280.416 1277.27 278.073C1277.27 275.73 1275.02 273.962 1272.02 273.962C1269.02 273.962 1266.77 275.73 1266.77 278.073ZM1272.02 276.703C1274.05 276.703 1275.17 277.732 1275.17 278.073C1275.17 278.414 1274.05 279.443 1272.02 279.443C1269.99 279.443 1268.87 278.414 1268.87 278.073C1268.87 277.732 1269.99 276.703 1272.02 276.703Z" fill="black" fill-opacity="0.05"/>
<path d="M1286.73 312.329C1286.73 314.673 1288.99 316.44 1291.98 316.44C1294.98 316.44 1297.23 314.673 1297.23 312.329C1297.23 309.986 1294.98 308.219 1291.98 308.219C1288.99 308.219 1286.73 309.986 1286.73 312.329ZM1295.13 312.329C1295.13 312.671 1294.01 313.7 1291.98 313.7C1289.95 313.7 1288.83 312.671 1288.83 312.329C1288.83 311.988 1289.95 310.959 1291.98 310.959C1294.01 310.959 1295.13 311.988 1295.13 312.329Z" fill="black" fill-opacity="0.05"/>
<path d="M1312.99 310.959C1312.98 310.862 1312.97 310.767 1312.95 310.674C1313.1 310.008 1312.84 309.301 1312.35 309.03L1306.52 305.822C1305.96 304.009 1303.97 302.738 1301.43 302.738C1300.68 302.738 1301.72 303.193 1297.15 300.682C1296.81 298.96 1295.21 297.654 1293.03 297.335C1293.03 274.863 1293.07 275.881 1292.95 275.5C1292.84 275.178 1292.64 274.919 1292.4 274.775C1292.2 274.661 1292.4 274.775 1286.56 271.56C1286 269.753 1284.01 268.481 1281.47 268.481C1280.72 268.481 1281.76 268.936 1277.19 266.426C1276.29 261.861 1267.75 261.855 1266.85 266.426C1262.29 268.931 1263.32 268.481 1262.57 268.481C1260.03 268.481 1258.05 269.753 1257.48 271.56C1254.55 273.173 1251.5 274.849 1251.64 274.775C1251.42 274.902 1251.24 275.132 1251.13 275.423C1250.95 275.893 1251.01 272.708 1251.01 321.921C1251.01 322.473 1251.26 322.971 1251.65 323.185C1293.78 346.322 1291.51 345.216 1291.98 345.216C1292.34 345.216 1291.01 345.862 1312.35 334.147C1312.54 334.055 1312.71 333.869 1312.8 333.626C1313.06 333.109 1312.99 334.758 1312.99 310.959ZM1293.03 322.16L1310.89 312.351V331.974L1293.03 341.782V322.16ZM1304.59 306.848C1304.59 307.19 1303.47 308.219 1301.43 308.219C1299.4 308.219 1298.28 307.19 1298.28 306.848C1298.28 306.507 1299.4 305.478 1301.43 305.478C1303.47 305.478 1304.59 306.507 1304.59 306.848ZM1301.43 310.959C1303.21 311.14 1304.96 310.282 1306.2 308.616L1309.24 310.286L1291.98 319.763L1274.73 310.286L1277.76 308.616C1279.01 310.282 1280.75 311.14 1282.53 310.959C1287.65 310.959 1289.27 306.3 1286.3 303.938L1287.37 303.352C1289.29 306.193 1294.67 306.192 1296.59 303.352L1297.66 303.938C1294.66 306.321 1296.37 310.959 1301.43 310.959ZM1286.81 300.682C1282.25 303.187 1283.28 302.738 1282.53 302.738C1279.99 302.738 1278.01 304.009 1277.45 305.817L1273.07 308.219V287.903L1290.93 278.095V297.335C1288.75 297.654 1287.15 298.96 1286.81 300.682ZM1282.53 305.478C1284.56 305.478 1285.68 306.507 1285.68 306.848C1285.68 307.19 1284.56 308.219 1282.53 308.219C1280.49 308.219 1279.37 307.19 1279.37 306.848C1279.37 306.507 1280.49 305.478 1282.53 305.478ZM1253.11 278.095L1270.97 287.903V308.219L1253.11 298.416V278.095ZM1295.13 301.367C1295.13 301.709 1294.01 302.738 1291.98 302.738C1289.95 302.738 1288.83 301.709 1288.83 301.367C1288.83 301.026 1289.95 299.997 1291.98 299.997C1294.01 299.997 1295.13 301.026 1295.13 301.367ZM1284.63 272.592C1284.63 272.933 1283.51 273.962 1281.47 273.962C1279.44 273.962 1278.32 272.933 1278.32 272.592C1278.32 272.251 1279.44 271.222 1281.47 271.222C1283.51 271.222 1284.63 272.251 1284.63 272.592ZM1272.02 265.741C1274.05 265.741 1275.17 266.77 1275.17 267.111C1275.17 267.452 1274.05 268.481 1272.02 268.481C1269.99 268.481 1268.87 267.452 1268.87 267.111C1268.87 266.77 1269.99 265.741 1272.02 265.741ZM1267.41 269.095C1269.33 271.937 1274.71 271.936 1276.63 269.095L1277.7 269.682C1276.85 270.239 1276.28 271.347 1276.22 272.592C1276.22 277.188 1284.04 278.147 1286.24 274.36L1289.27 276.03L1272.02 285.507L1254.77 276.03L1257.8 274.36C1260 278.143 1267.82 277.192 1267.82 272.592C1267.76 271.347 1267.19 270.239 1266.34 269.682L1267.41 269.095ZM1262.57 271.222C1264.6 271.222 1265.72 272.251 1265.72 272.592C1265.72 272.933 1264.6 273.962 1262.57 273.962C1260.53 273.962 1259.41 272.933 1259.41 272.592C1259.41 272.251 1260.53 271.222 1262.57 271.222ZM1253.11 301.389L1271.61 311.55L1290.93 322.16V341.782L1253.11 321.011V301.389Z" fill="black" fill-opacity="0.05"/>
<path d="M1288.2 334.367L1265.09 321.309C1264.74 321.1 1264.33 321.153 1264.03 321.446C1263.72 321.74 1263.56 322.228 1263.6 322.721C1263.65 323.215 1263.9 323.637 1264.25 323.823L1287.36 336.88C1287.71 337.098 1288.12 337.05 1288.43 336.756C1288.75 336.461 1288.91 335.968 1288.86 335.47C1288.81 334.972 1288.56 334.549 1288.2 334.367Z" fill="black" fill-opacity="0.05"/>
<path d="M1259.83 318.334L1256.68 316.553C1256.15 316.25 1255.53 316.567 1255.3 317.262C1255.07 317.956 1255.31 318.764 1255.84 319.067L1258.99 320.848C1259.34 321.044 1259.74 320.986 1260.04 320.694C1260.34 320.403 1260.5 319.924 1260.46 319.437C1260.42 318.95 1260.18 318.53 1259.83 318.334Z" fill="black" fill-opacity="0.05"/>
<path d="M1281.7 25.5838C1281.7 28.019 1284.04 29.8561 1287.15 29.8561C1290.27 29.8561 1292.61 28.019 1292.61 25.5838C1292.61 23.1486 1290.27 21.3115 1287.15 21.3115C1284.04 21.3115 1281.7 23.1486 1281.7 25.5838ZM1290.43 25.5838C1290.43 25.9384 1289.27 27.0079 1287.15 27.0079C1285.04 27.0079 1283.88 25.9384 1283.88 25.5838C1283.88 25.2292 1285.04 24.1597 1287.15 24.1597C1289.27 24.1597 1290.43 25.2292 1290.43 25.5838Z" fill="black" fill-opacity="0.05"/>
<path fill-rule="evenodd" clip-rule="evenodd" d="M1308.99 24.1597C1308.98 24.0591 1308.97 23.9597 1308.94 23.8635C1309.1 23.1709 1308.83 22.4368 1308.32 22.1546L1302.26 18.8208C1301.68 16.9367 1299.61 15.6152 1296.98 15.6152C1296.2 15.6152 1297.27 16.088 1292.53 13.4791C1292.18 11.689 1290.51 10.3318 1288.25 10H1286.06C1283.8 10.3318 1282.13 11.689 1281.78 13.4791C1277.05 16.0823 1278.11 15.6152 1277.33 15.6152C1274.7 15.6152 1272.63 16.9367 1272.05 18.8151L1267.5 21.3116C1267.5 21.3116 1265.33 22.6675 1264.67 22.9554C1264 23.2434 1264 23.7781 1264 23.7781V44.0764V46.9976C1264.39 47.2128 1265.13 47.6675 1265.85 48.1094L1267.5 49.1047C1288.15 60.4718 1286.77 59.762 1287.15 59.762C1287.52 59.762 1286.15 60.4342 1308.32 48.2582C1308.53 48.1626 1308.69 47.969 1308.79 47.717C1309.07 47.1802 1308.99 48.8933 1308.99 24.1597ZM1306.81 25.6066L1288.25 35.8003V56.1932L1306.81 45.9996V25.6066ZM1296.98 21.3116C1299.09 21.3116 1300.26 20.2421 1300.26 19.8875C1300.26 19.5329 1299.09 18.4634 1296.98 18.4634C1294.87 18.4634 1293.71 19.5329 1293.71 19.8875C1293.71 20.2421 1294.87 21.3116 1296.98 21.3116ZM1301.93 21.7245C1300.64 23.4555 1298.83 24.3479 1296.98 24.1597C1291.71 24.1597 1289.94 19.3392 1293.06 16.8627L1291.95 16.2532C1289.95 19.2053 1284.36 19.2067 1282.36 16.2532L1281.25 16.8627C1284.34 19.3178 1282.66 24.1597 1277.33 24.1597C1275.48 24.3479 1273.67 23.4555 1272.38 21.7245L1269.22 23.4605L1287.15 33.3095L1305.09 23.4605L1301.93 21.7245ZM1280.6 19.8875C1280.6 19.5329 1279.44 18.4634 1277.33 18.4634C1275.21 18.4634 1274.05 19.5329 1274.05 19.8875C1274.05 20.2421 1275.21 21.3116 1277.33 21.3116C1279.44 21.3116 1280.6 20.2421 1280.6 19.8875ZM1287.15 15.6152C1289.27 15.6152 1290.43 14.5457 1290.43 14.1911C1290.43 13.8365 1289.27 12.767 1287.15 12.767C1285.04 12.767 1283.88 13.8365 1283.88 14.1911C1283.88 14.5457 1285.04 15.6152 1287.15 15.6152ZM1286.06 56.1932V35.8003L1266.18 24.8826L1266.18 45.2756L1286.06 56.1932Z" fill="black" fill-opacity="0.05"/>
</svg>
