<svg width="78" height="78" viewBox="0 0 78 78" fill="none" xmlns="http://www.w3.org/2000/svg">
<g filter="url(#filter0_d)">
<circle cx="39" cy="35" r="28.95" stroke="#FF0A0A" stroke-opacity="0.2" stroke-width="0.1"/>
</g>
<g filter="url(#filter1_d)">
<circle cx="39" cy="35" r="19" fill="url(#paint0_linear)"/>
</g>
<path d="M34.8652 41.0036L32.6353 41.6011L27.3584 36.306L27.3075 36.3196C27.6754 37.4059 27.9226 38.1849 28.0489 38.6566L29.0923 42.5505L27.5246 42.9705L25.3074 34.696L27.5204 34.1031L32.7749 39.3375L32.8145 39.3268C32.4698 38.2667 32.2377 37.514 32.1184 37.0687L31.069 33.1522L32.6481 32.7291L34.8652 41.0036ZM41.7191 39.1671L36.9537 40.444L34.7365 32.1695L39.502 30.8926L39.8872 32.3302L36.8762 33.1369L37.363 34.9537L40.1646 34.203L40.5498 35.6406L37.7482 36.3913L38.3199 38.525L41.3309 37.7182L41.7191 39.1671ZM51.5105 36.5435L49.5126 37.0789L47.2273 33.0325C47.1443 32.8889 46.9872 32.5893 46.7559 32.1336C46.5274 31.6731 46.3833 31.3619 46.3238 31.2C46.3557 31.4098 46.3871 31.7532 46.4178 32.2302C46.4476 32.7035 46.4637 33.0429 46.4662 33.2485L46.5129 37.8826L44.5207 38.4164L40.1925 30.7076L41.9187 30.245L44.1872 34.4779C44.5956 35.2622 44.9231 35.9489 45.1699 36.5379C45.1349 36.3168 45.0969 35.9711 45.0558 35.5008C45.0175 35.0258 45.0008 34.6542 45.0058 34.386L44.9693 29.4276L46.6276 28.9833L49.0751 33.2956C49.1836 33.489 49.3345 33.7882 49.528 34.1933C49.7215 34.5985 49.8799 34.9483 50.0033 35.2428C49.9622 34.9384 49.9245 34.5562 49.8902 34.0963C49.8549 33.6326 49.8349 33.2558 49.83 32.9659L49.6725 28.1674L51.3987 27.7049L51.5105 36.5435Z" fill="white"/>
<defs>
<filter id="filter0_d" x="0" y="0" width="78" height="78" filterUnits="userSpaceOnUse" color-interpolation-filters="sRGB">
<feFlood flood-opacity="0" result="BackgroundImageFix"/>
<feColorMatrix in="SourceAlpha" type="matrix" values="0 0 0 0 0 0 0 0 0 0 0 0 0 0 0 0 0 0 127 0"/>
<feOffset dy="4"/>
<feGaussianBlur stdDeviation="5"/>
<feColorMatrix type="matrix" values="0 0 0 0 1 0 0 0 0 0.0375 0 0 0 0 0.0375 0 0 0 0.2 0"/>
<feBlend mode="normal" in2="BackgroundImageFix" result="effect1_dropShadow"/>
<feBlend mode="normal" in="SourceGraphic" in2="effect1_dropShadow" result="shape"/>
</filter>
<filter id="filter1_d" x="10" y="16" width="58" height="58" filterUnits="userSpaceOnUse" color-interpolation-filters="sRGB">
<feFlood flood-opacity="0" result="BackgroundImageFix"/>
<feColorMatrix in="SourceAlpha" type="matrix" values="0 0 0 0 0 0 0 0 0 0 0 0 0 0 0 0 0 0 127 0"/>
<feOffset dy="10"/>
<feGaussianBlur stdDeviation="5"/>
<feColorMatrix type="matrix" values="0 0 0 0 1 0 0 0 0 0.0375 0 0 0 0 0.0375 0 0 0 0.15 0"/>
<feBlend mode="normal" in2="BackgroundImageFix" result="effect1_dropShadow"/>
<feBlend mode="normal" in="SourceGraphic" in2="effect1_dropShadow" result="shape"/>
</filter>
<linearGradient id="paint0_linear" x1="26.0167" y1="23.2833" x2="50.0833" y2="49.8833" gradientUnits="userSpaceOnUse">
<stop stop-color="#FF0000"/>
<stop offset="1" stop-color="#DF0B0B"/>
</linearGradient>
</defs>
</svg>
